<svg xmlns="http://www.w3.org/2000/svg" xmlns:xlink="http://www.w3.org/1999/xlink" width="1080" zoomAndPan="magnify" viewBox="0 0 810 809.999993" height="1080" preserveAspectRatio="xMidYMid meet" version="1.0"><defs><clipPath id="ae94b92015"><path d="M 0 241.015625 L 810 241.015625 L 810 509.867188 L 0 509.867188 Z M 0 241.015625 " clip-rule="nonzero"/></clipPath><linearGradient x1="43.474975" gradientTransform="matrix(1.050192, 0, 0, 1.050192, -45.657051, 241.016678)" y1="128" x2="814.762743" gradientUnits="userSpaceOnUse" y2="128" id="610530ffd3"><stop stop-opacity="1" stop-color="rgb(99.935913%, 70.239258%, 3.263855%)" offset="0"/><stop stop-opacity="1" stop-color="rgb(99.931335%, 69.534302%, 3.323364%)" offset="0.00390625"/><stop stop-opacity="1" stop-color="rgb(99.926758%, 68.830872%, 3.382874%)" offset="0.0078125"/><stop stop-opacity="1" stop-color="rgb(99.92218%, 68.125916%, 3.442383%)" offset="0.0117187"/><stop stop-opacity="1" stop-color="rgb(99.917603%, 67.422485%, 3.503418%)" offset="0.015625"/><stop stop-opacity="1" stop-color="rgb(99.913025%, 66.717529%, 3.562927%)" offset="0.0195313"/><stop stop-opacity="1" stop-color="rgb(99.908447%, 66.014099%, 3.622437%)" offset="0.0234375"/><stop stop-opacity="1" stop-color="rgb(99.90387%, 65.309143%, 3.681946%)" offset="0.0273438"/><stop stop-opacity="1" stop-color="rgb(99.899292%, 64.605713%, 3.742981%)" offset="0.03125"/><stop stop-opacity="1" stop-color="rgb(99.894714%, 63.900757%, 3.80249%)" offset="0.0351562"/><stop stop-opacity="1" stop-color="rgb(99.890137%, 63.197327%, 3.862%)" offset="0.0390625"/><stop stop-opacity="1" stop-color="rgb(99.885559%, 62.492371%, 3.921509%)" offset="0.0429688"/><stop stop-opacity="1" stop-color="rgb(99.882507%, 61.78894%, 3.982544%)" offset="0.046875"/><stop stop-opacity="1" stop-color="rgb(99.87793%, 61.083984%, 4.042053%)" offset="0.0507812"/><stop stop-opacity="1" stop-color="rgb(99.873352%, 60.380554%, 4.101562%)" offset="0.0546875"/><stop stop-opacity="1" stop-color="rgb(99.868774%, 59.675598%, 4.161072%)" offset="0.0585937"/><stop stop-opacity="1" stop-color="rgb(99.864197%, 58.972168%, 4.220581%)" offset="0.0625"/><stop stop-opacity="1" stop-color="rgb(99.859619%, 58.267212%, 4.28009%)" offset="0.0664063"/><stop stop-opacity="1" stop-color="rgb(99.855042%, 57.563782%, 4.341125%)" offset="0.0703125"/><stop stop-opacity="1" stop-color="rgb(99.850464%, 56.858826%, 4.400635%)" offset="0.0742188"/><stop stop-opacity="1" stop-color="rgb(99.845886%, 56.155396%, 4.460144%)" offset="0.078125"/><stop stop-opacity="1" stop-color="rgb(99.841309%, 55.451965%, 4.519653%)" offset="0.0820312"/><stop stop-opacity="1" stop-color="rgb(99.838257%, 54.748535%, 4.580688%)" offset="0.0859375"/><stop stop-opacity="1" stop-color="rgb(99.833679%, 54.043579%, 4.640198%)" offset="0.0898438"/><stop stop-opacity="1" stop-color="rgb(99.829102%, 53.340149%, 4.699707%)" offset="0.09375"/><stop stop-opacity="1" stop-color="rgb(99.824524%, 52.635193%, 4.759216%)" offset="0.0976562"/><stop stop-opacity="1" stop-color="rgb(99.819946%, 51.931763%, 4.820251%)" offset="0.101563"/><stop stop-opacity="1" stop-color="rgb(99.815369%, 51.226807%, 4.879761%)" offset="0.105469"/><stop stop-opacity="1" stop-color="rgb(99.810791%, 50.523376%, 4.93927%)" offset="0.109375"/><stop stop-opacity="1" stop-color="rgb(99.806213%, 49.81842%, 4.998779%)" offset="0.113281"/><stop stop-opacity="1" stop-color="rgb(99.801636%, 49.11499%, 5.059814%)" offset="0.117188"/><stop stop-opacity="1" stop-color="rgb(99.797058%, 48.410034%, 5.119324%)" offset="0.121094"/><stop stop-opacity="1" stop-color="rgb(99.794006%, 47.706604%, 5.178833%)" offset="0.125"/><stop stop-opacity="1" stop-color="rgb(99.789429%, 47.001648%, 5.238342%)" offset="0.128906"/><stop stop-opacity="1" stop-color="rgb(99.784851%, 46.298218%, 5.299377%)" offset="0.132812"/><stop stop-opacity="1" stop-color="rgb(99.780273%, 45.593262%, 5.358887%)" offset="0.136719"/><stop stop-opacity="1" stop-color="rgb(99.775696%, 44.889832%, 5.418396%)" offset="0.140625"/><stop stop-opacity="1" stop-color="rgb(99.771118%, 44.184875%, 5.477905%)" offset="0.144531"/><stop stop-opacity="1" stop-color="rgb(99.766541%, 43.481445%, 5.53894%)" offset="0.148438"/><stop stop-opacity="1" stop-color="rgb(99.761963%, 42.776489%, 5.59845%)" offset="0.152344"/><stop stop-opacity="1" stop-color="rgb(99.757385%, 42.073059%, 5.657959%)" offset="0.15625"/><stop stop-opacity="1" stop-color="rgb(99.752808%, 41.368103%, 5.717468%)" offset="0.160156"/><stop stop-opacity="1" stop-color="rgb(99.74823%, 40.664673%, 5.778503%)" offset="0.164062"/><stop stop-opacity="1" stop-color="rgb(99.743652%, 39.959717%, 5.838013%)" offset="0.167969"/><stop stop-opacity="1" stop-color="rgb(99.740601%, 39.256287%, 5.897522%)" offset="0.171875"/><stop stop-opacity="1" stop-color="rgb(99.736023%, 38.552856%, 5.957031%)" offset="0.175781"/><stop stop-opacity="1" stop-color="rgb(99.731445%, 37.849426%, 6.018066%)" offset="0.179688"/><stop stop-opacity="1" stop-color="rgb(99.726868%, 37.14447%, 6.077576%)" offset="0.183594"/><stop stop-opacity="1" stop-color="rgb(99.72229%, 36.44104%, 6.137085%)" offset="0.1875"/><stop stop-opacity="1" stop-color="rgb(99.717712%, 35.736084%, 6.196594%)" offset="0.191406"/><stop stop-opacity="1" stop-color="rgb(99.713135%, 35.032654%, 6.257629%)" offset="0.195313"/><stop stop-opacity="1" stop-color="rgb(99.708557%, 34.327698%, 6.317139%)" offset="0.199219"/><stop stop-opacity="1" stop-color="rgb(99.703979%, 33.624268%, 6.376648%)" offset="0.203125"/><stop stop-opacity="1" stop-color="rgb(99.699402%, 32.919312%, 6.436157%)" offset="0.207031"/><stop stop-opacity="1" stop-color="rgb(99.69635%, 32.215881%, 6.497192%)" offset="0.210938"/><stop stop-opacity="1" stop-color="rgb(99.691772%, 31.510925%, 6.556702%)" offset="0.214844"/><stop stop-opacity="1" stop-color="rgb(99.687195%, 30.807495%, 6.616211%)" offset="0.21875"/><stop stop-opacity="1" stop-color="rgb(99.682617%, 30.102539%, 6.67572%)" offset="0.222656"/><stop stop-opacity="1" stop-color="rgb(99.67804%, 29.399109%, 6.736755%)" offset="0.226562"/><stop stop-opacity="1" stop-color="rgb(99.673462%, 28.694153%, 6.796265%)" offset="0.230469"/><stop stop-opacity="1" stop-color="rgb(99.668884%, 27.990723%, 6.855774%)" offset="0.234375"/><stop stop-opacity="1" stop-color="rgb(99.664307%, 27.285767%, 6.915283%)" offset="0.238281"/><stop stop-opacity="1" stop-color="rgb(99.659729%, 26.582336%, 6.976318%)" offset="0.242188"/><stop stop-opacity="1" stop-color="rgb(99.655151%, 25.87738%, 7.035828%)" offset="0.246094"/><stop stop-opacity="1" stop-color="rgb(99.6521%, 25.17395%, 7.095337%)" offset="0.25"/><stop stop-opacity="1" stop-color="rgb(99.647522%, 24.468994%, 7.154846%)" offset="0.253906"/><stop stop-opacity="1" stop-color="rgb(99.642944%, 23.765564%, 7.215881%)" offset="0.257812"/><stop stop-opacity="1" stop-color="rgb(99.638367%, 23.060608%, 7.275391%)" offset="0.261719"/><stop stop-opacity="1" stop-color="rgb(99.633789%, 22.357178%, 7.3349%)" offset="0.265625"/><stop stop-opacity="1" stop-color="rgb(99.629211%, 21.653748%, 7.394409%)" offset="0.269531"/><stop stop-opacity="1" stop-color="rgb(99.624634%, 20.950317%, 7.455444%)" offset="0.273437"/><stop stop-opacity="1" stop-color="rgb(99.620056%, 20.245361%, 7.514954%)" offset="0.277344"/><stop stop-opacity="1" stop-color="rgb(99.615479%, 19.541931%, 7.574463%)" offset="0.28125"/><stop stop-opacity="1" stop-color="rgb(99.610901%, 18.836975%, 7.633972%)" offset="0.285156"/><stop stop-opacity="1" stop-color="rgb(99.606323%, 18.133545%, 7.695007%)" offset="0.289062"/><stop stop-opacity="1" stop-color="rgb(99.595642%, 17.492676%, 7.746887%)" offset="0.292969"/><stop stop-opacity="1" stop-color="rgb(99.584961%, 16.853333%, 7.798767%)" offset="0.296875"/><stop stop-opacity="1" stop-color="rgb(99.528503%, 16.670227%, 7.798767%)" offset="0.304687"/><stop stop-opacity="1" stop-color="rgb(99.415588%, 16.305542%, 7.798767%)" offset="0.3125"/><stop stop-opacity="1" stop-color="rgb(99.302673%, 15.940857%, 7.798767%)" offset="0.320312"/><stop stop-opacity="1" stop-color="rgb(99.189758%, 15.576172%, 7.798767%)" offset="0.328125"/><stop stop-opacity="1" stop-color="rgb(99.078369%, 15.211487%, 7.798767%)" offset="0.335937"/><stop stop-opacity="1" stop-color="rgb(98.965454%, 14.846802%, 7.798767%)" offset="0.34375"/><stop stop-opacity="1" stop-color="rgb(98.852539%, 14.482117%, 7.798767%)" offset="0.351562"/><stop stop-opacity="1" stop-color="rgb(98.739624%, 14.117432%, 7.798767%)" offset="0.359375"/><stop stop-opacity="1" stop-color="rgb(98.626709%, 13.752747%, 7.798767%)" offset="0.367188"/><stop stop-opacity="1" stop-color="rgb(98.513794%, 13.388062%, 7.798767%)" offset="0.375"/><stop stop-opacity="1" stop-color="rgb(98.400879%, 13.023376%, 7.798767%)" offset="0.382812"/><stop stop-opacity="1" stop-color="rgb(98.287964%, 12.657166%, 7.798767%)" offset="0.390625"/><stop stop-opacity="1" stop-color="rgb(98.175049%, 12.29248%, 7.798767%)" offset="0.398437"/><stop stop-opacity="1" stop-color="rgb(98.062134%, 11.927795%, 7.798767%)" offset="0.40625"/><stop stop-opacity="1" stop-color="rgb(97.950745%, 11.56311%, 7.798767%)" offset="0.414062"/><stop stop-opacity="1" stop-color="rgb(97.83783%, 11.198425%, 7.798767%)" offset="0.421875"/><stop stop-opacity="1" stop-color="rgb(97.724915%, 10.83374%, 7.798767%)" offset="0.429687"/><stop stop-opacity="1" stop-color="rgb(97.612%, 10.469055%, 7.798767%)" offset="0.4375"/><stop stop-opacity="1" stop-color="rgb(97.499084%, 10.10437%, 7.798767%)" offset="0.445312"/><stop stop-opacity="1" stop-color="rgb(97.386169%, 9.739685%, 7.798767%)" offset="0.453125"/><stop stop-opacity="1" stop-color="rgb(97.273254%, 9.375%, 7.798767%)" offset="0.460938"/><stop stop-opacity="1" stop-color="rgb(97.160339%, 9.008789%, 7.798767%)" offset="0.46875"/><stop stop-opacity="1" stop-color="rgb(97.047424%, 8.644104%, 7.798767%)" offset="0.476562"/><stop stop-opacity="1" stop-color="rgb(96.934509%, 8.279419%, 7.798767%)" offset="0.484375"/><stop stop-opacity="1" stop-color="rgb(96.82312%, 7.914734%, 7.798767%)" offset="0.492188"/><stop stop-opacity="1" stop-color="rgb(96.710205%, 7.550049%, 7.798767%)" offset="0.5"/><stop stop-opacity="1" stop-color="rgb(96.59729%, 7.185364%, 7.798767%)" offset="0.507812"/><stop stop-opacity="1" stop-color="rgb(96.484375%, 6.820679%, 7.798767%)" offset="0.515625"/><stop stop-opacity="1" stop-color="rgb(96.37146%, 6.455994%, 7.798767%)" offset="0.523437"/><stop stop-opacity="1" stop-color="rgb(96.258545%, 6.091309%, 7.798767%)" offset="0.53125"/><stop stop-opacity="1" stop-color="rgb(96.14563%, 5.726624%, 7.798767%)" offset="0.539062"/><stop stop-opacity="1" stop-color="rgb(96.032715%, 5.361938%, 7.798767%)" offset="0.546875"/><stop stop-opacity="1" stop-color="rgb(95.9198%, 4.995728%, 7.798767%)" offset="0.554688"/><stop stop-opacity="1" stop-color="rgb(95.806885%, 4.631042%, 7.798767%)" offset="0.5625"/><stop stop-opacity="1" stop-color="rgb(95.695496%, 4.266357%, 7.798767%)" offset="0.570312"/><stop stop-opacity="1" stop-color="rgb(95.582581%, 3.901672%, 7.798767%)" offset="0.578125"/><stop stop-opacity="1" stop-color="rgb(95.469666%, 3.536987%, 7.798767%)" offset="0.585938"/><stop stop-opacity="1" stop-color="rgb(95.35675%, 3.172302%, 7.798767%)" offset="0.59375"/><stop stop-opacity="1" stop-color="rgb(95.243835%, 2.807617%, 7.798767%)" offset="0.601562"/><stop stop-opacity="1" stop-color="rgb(95.13092%, 2.442932%, 7.798767%)" offset="0.609375"/><stop stop-opacity="1" stop-color="rgb(95.018005%, 2.078247%, 7.798767%)" offset="0.617188"/><stop stop-opacity="1" stop-color="rgb(94.90509%, 1.713562%, 7.798767%)" offset="0.625"/><stop stop-opacity="1" stop-color="rgb(94.792175%, 1.347351%, 7.798767%)" offset="0.632812"/><stop stop-opacity="1" stop-color="rgb(94.67926%, 0.982666%, 7.798767%)" offset="0.640625"/><stop stop-opacity="1" stop-color="rgb(94.567871%, 0.617981%, 7.798767%)" offset="0.648438"/><stop stop-opacity="1" stop-color="rgb(94.419861%, 0.413513%, 7.806396%)" offset="0.65625"/><stop stop-opacity="1" stop-color="rgb(94.137573%, 0.38147%, 7.832336%)" offset="0.671875"/><stop stop-opacity="1" stop-color="rgb(93.756104%, 0.364685%, 7.867432%)" offset="0.6875"/><stop stop-opacity="1" stop-color="rgb(93.374634%, 0.346375%, 7.904053%)" offset="0.703125"/><stop stop-opacity="1" stop-color="rgb(92.993164%, 0.32959%, 7.939148%)" offset="0.71875"/><stop stop-opacity="1" stop-color="rgb(92.611694%, 0.311279%, 7.974243%)" offset="0.734375"/><stop stop-opacity="1" stop-color="rgb(92.230225%, 0.292969%, 8.009338%)" offset="0.75"/><stop stop-opacity="1" stop-color="rgb(91.848755%, 0.276184%, 8.045959%)" offset="0.765625"/><stop stop-opacity="1" stop-color="rgb(91.467285%, 0.257874%, 8.081055%)" offset="0.78125"/><stop stop-opacity="1" stop-color="rgb(91.085815%, 0.239563%, 8.11615%)" offset="0.796875"/><stop stop-opacity="1" stop-color="rgb(90.704346%, 0.222778%, 8.151245%)" offset="0.8125"/><stop stop-opacity="1" stop-color="rgb(90.322876%, 0.204468%, 8.187866%)" offset="0.828125"/><stop stop-opacity="1" stop-color="rgb(89.941406%, 0.187683%, 8.222961%)" offset="0.84375"/><stop stop-opacity="1" stop-color="rgb(89.559937%, 0.169373%, 8.258057%)" offset="0.859375"/><stop stop-opacity="1" stop-color="rgb(89.178467%, 0.151062%, 8.293152%)" offset="0.875"/><stop stop-opacity="1" stop-color="rgb(88.796997%, 0.134277%, 8.329773%)" offset="0.890625"/><stop stop-opacity="1" stop-color="rgb(88.415527%, 0.115967%, 8.364868%)" offset="0.90625"/><stop stop-opacity="1" stop-color="rgb(88.034058%, 0.0976562%, 8.399963%)" offset="0.921875"/><stop stop-opacity="1" stop-color="rgb(87.652588%, 0.0808716%, 8.435059%)" offset="0.9375"/><stop stop-opacity="1" stop-color="rgb(87.271118%, 0.062561%, 8.47168%)" offset="0.953125"/><stop stop-opacity="1" stop-color="rgb(86.889648%, 0.0457764%, 8.506775%)" offset="0.96875"/><stop stop-opacity="1" stop-color="rgb(86.508179%, 0.0274658%, 8.54187%)" offset="0.984375"/><stop stop-opacity="1" stop-color="rgb(86.126709%, 0.00915527%, 8.576965%)" offset="1"/></linearGradient><clipPath id="069ccfdce0"><path d="M 169.707031 232.320312 L 429 232.320312 L 429 517.503906 L 169.707031 517.503906 Z M 169.707031 232.320312 " clip-rule="nonzero"/></clipPath><clipPath id="2cf37138b3"><path d="M 356 420 L 542.675781 420 L 542.675781 491 L 356 491 Z M 356 420 " clip-rule="nonzero"/></clipPath><clipPath id="9fb1a5170a"><path d="M 356 258 L 542.675781 258 L 542.675781 328 L 356 328 Z M 356 258 " clip-rule="nonzero"/></clipPath><clipPath id="6691e57bbc"><path d="M 0 239.847656 L 207.601562 239.847656 L 207.601562 518 L 0 518 Z M 0 239.847656 " clip-rule="nonzero"/></clipPath><clipPath id="eac3bfa7a5"><path d="M 553 219.433594 L 771 219.433594 L 771 367 L 553 367 Z M 553 219.433594 " clip-rule="nonzero"/></clipPath><clipPath id="20453a91fc"><path d="M 529.046875 280 L 810 280 L 810 527 L 529.046875 527 Z M 529.046875 280 " clip-rule="nonzero"/></clipPath></defs><rect x="-81" width="972" fill="#ffffff" y="-80.999999" height="971.999992" fill-opacity="1"/><rect x="-81" width="972" fill="#ffffff" y="-80.999999" height="971.999992" fill-opacity="1"/><g clip-path="url(#ae94b92015)"><path fill="url(#610530ffd3)" d="M 0 241.015625 L 0 509.867188 L 810 509.867188 L 810 241.015625 Z M 0 241.015625 " fill-rule="nonzero"/></g><g clip-path="url(#069ccfdce0)"><path fill="#ffffff" d="M 362.746094 444.015625 C 356.914062 444.015625 351.644531 441.097656 348.730469 437.023438 C 338.226562 443.449219 326 446.929688 312.578125 446.929688 C 272.355469 446.929688 240.28125 414.292969 240.28125 374.632812 C 240.28125 334.375 272.917969 302.300781 312.578125 302.300781 C 326 302.300781 338.226562 305.8125 348.730469 312.242188 C 351.644531 308.132812 356.914062 305.214844 362.746094 305.214844 L 413.472656 305.214844 L 428.648438 290.074219 C 428.648438 289.476562 428.050781 288.914062 427.453125 287.722656 L 399.488281 259.757812 C 397.734375 258 394.222656 257.402344 391.902344 259.160156 L 371.457031 272.578125 C 362.746094 267.3125 353.402344 263.832031 343.492188 260.917969 L 338.226562 236.992188 C 337.660156 234.078125 335.34375 232.320312 332.394531 232.320312 L 292.167969 232.320312 C 289.253906 232.320312 286.933594 234.078125 286.335938 236.992188 L 281.101562 260.917969 C 271.164062 263.832031 261.851562 267.3125 253.105469 272.578125 L 232.695312 259.160156 C 230.339844 257.402344 227.425781 258 225.105469 259.757812 L 197.109375 287.722656 C 195.351562 289.476562 194.789062 292.988281 196.546875 295.308594 L 209.929688 315.71875 C 204.695312 324.46875 201.183594 333.8125 198.269531 343.71875 L 174.378906 348.953125 C 171.460938 349.550781 169.707031 351.867188 169.707031 354.785156 L 169.707031 394.445312 C 169.707031 397.359375 171.460938 399.679688 174.378906 400.277344 L 198.269531 405.511719 C 200.621094 415.453125 204.695312 424.761719 209.929688 433.511719 L 196.546875 454.515625 C 194.789062 456.835938 195.351562 459.753906 197.109375 462.105469 L 225.105469 490.101562 C 226.863281 491.859375 230.339844 492.421875 232.695312 490.667969 L 253.667969 477.246094 C 262.414062 482.515625 271.757812 485.996094 281.664062 488.910156 L 286.933594 512.832031 C 287.496094 515.75 289.851562 517.503906 292.765625 517.503906 L 332.394531 517.503906 C 335.34375 517.503906 337.660156 515.75 338.226562 512.832031 L 343.492188 488.910156 C 353.402344 485.996094 362.746094 482.515625 371.457031 477.246094 L 391.902344 490.101562 C 394.222656 491.859375 397.734375 491.261719 399.488281 489.507812 C 400.617188 488.347656 426.890625 462.105469 427.453125 461.507812 C 428.050781 460.945312 428.648438 460.347656 428.648438 459.753906 L 413.472656 444.015625 L 362.746094 444.015625 " fill-opacity="1" fill-rule="nonzero"/></g><path fill="#ffffff" d="M 498.625 348.953125 C 486.964844 348.953125 477.023438 357.136719 474.105469 368.203125 L 384.878906 368.203125 C 381.996094 368.203125 379.046875 371.121094 379.046875 374.035156 C 379.046875 377.546875 381.996094 379.867188 384.878906 379.867188 L 474.105469 379.867188 C 476.460938 390.964844 486.367188 399.117188 498.625 399.117188 C 512.609375 399.117188 523.675781 388.015625 523.675781 374.035156 C 523.675781 360.050781 512.609375 348.953125 498.625 348.953125 " fill-opacity="1" fill-rule="nonzero"/><g clip-path="url(#2cf37138b3)"><path fill="#ffffff" d="M 517.246094 439.34375 C 505.585938 439.34375 495.675781 447.527344 492.792969 458.59375 L 461.285156 458.59375 L 424.539062 421.847656 C 423.378906 421.285156 422.21875 420.6875 420.464844 420.6875 L 362.148438 420.6875 C 358.636719 420.6875 356.316406 423.601562 356.316406 426.519531 C 356.316406 429.433594 358.636719 432.351562 362.148438 432.351562 L 418.109375 432.351562 L 454.855469 469.097656 C 456.050781 470.253906 457.804688 470.851562 458.933594 470.851562 L 492.761719 470.851562 C 495.675781 481.917969 505.585938 490.101562 517.246094 490.101562 C 531.261719 490.101562 542.328125 479.003906 542.328125 465.019531 C 542.328125 450.441406 531.261719 439.34375 517.246094 439.34375 " fill-opacity="1" fill-rule="nonzero"/></g><g clip-path="url(#9fb1a5170a)"><path fill="#ffffff" d="M 362.746094 316.316406 C 359.828125 316.316406 356.914062 319.230469 356.914062 322.148438 C 356.914062 325.0625 359.828125 327.980469 362.746094 327.980469 L 420.464844 327.980469 C 422.21875 327.980469 423.378906 327.382812 424.539062 326.222656 L 461.285156 289.476562 L 493.359375 289.476562 C 496.273438 300.542969 506.179688 308.726562 517.84375 308.726562 C 531.859375 308.726562 542.925781 297.628906 542.925781 283.644531 C 542.925781 269.664062 531.859375 258.5625 517.84375 258.5625 C 506.179688 258.5625 495.675781 266.746094 493.359375 277.8125 L 458.933594 277.8125 C 457.207031 277.8125 456.050781 278.410156 454.855469 279.570312 L 418.109375 316.316406 L 362.746094 316.316406 " fill-opacity="1" fill-rule="nonzero"/></g><path fill="#ffffff" d="M 60.945312 287 C 93.371094 287 117.734375 294.445312 133.351562 309.132812 C 148.800781 323.660156 156.632812 346.285156 156.632812 376.382812 C 156.632812 407.132812 148.375 430.027344 131.382812 446.367188 C 114.515625 462.589844 90.214844 470.8125 59.144531 470.8125 L 3.257812 470.8125 C 0.363281 465.859375 -5.003906 462.527344 -11.15625 462.527344 C -20.367188 462.527344 -27.835938 469.996094 -27.835938 479.210938 C -27.835938 488.421875 -20.367188 495.890625 -11.15625 495.890625 C -5.003906 495.890625 0.363281 492.558594 3.257812 487.605469 L 59.144531 487.605469 C 94.703125 487.605469 122.921875 477.804688 143.023438 458.472656 C 163.199219 439.066406 173.425781 411.449219 173.425781 376.382812 C 173.425781 305.929688 135.582031 270.207031 60.945312 270.207031 L 13.675781 270.207031 L 13.675781 420.664062 L 105.136719 420.664062 C 108.027344 425.617188 113.398438 428.949219 119.546875 428.949219 C 128.761719 428.949219 136.230469 421.480469 136.230469 412.269531 C 136.230469 403.054688 128.761719 395.585938 119.546875 395.585938 C 113.398438 395.585938 108.027344 398.917969 105.136719 403.871094 L 30.46875 403.871094 L 30.46875 287 Z M -11.15625 487.128906 C -15.527344 487.128906 -19.074219 483.582031 -19.074219 479.210938 C -19.074219 474.835938 -15.527344 471.289062 -11.15625 471.289062 C -6.78125 471.289062 -3.234375 474.835938 -3.234375 479.210938 C -3.234375 483.582031 -6.78125 487.128906 -11.15625 487.128906 Z M 119.546875 404.347656 C 123.921875 404.347656 127.46875 407.894531 127.46875 412.269531 C 127.46875 416.644531 123.921875 420.1875 119.546875 420.1875 C 115.175781 420.1875 111.628906 416.644531 111.628906 412.269531 C 111.628906 407.894531 115.175781 404.347656 119.546875 404.347656 Z M 119.546875 404.347656 " fill-opacity="1" fill-rule="nonzero"/><g clip-path="url(#6691e57bbc)"><path fill="#ffffff" d="M 170.777344 273.957031 C 146.242188 251.332031 109.53125 239.859375 61.664062 239.859375 L -19.550781 239.859375 L -19.550781 454.242188 L 63.46875 454.242188 C 66.363281 459.195312 71.730469 462.527344 77.882812 462.527344 C 87.09375 462.527344 94.5625 455.058594 94.5625 445.847656 C 94.5625 436.632812 87.09375 429.164062 77.882812 429.164062 C 71.730469 429.164062 66.363281 432.496094 63.46875 437.449219 L -2.757812 437.449219 L -2.757812 256.652344 L 61.664062 256.652344 C 148.898438 256.652344 191.304688 295.582031 191.304688 375.664062 C 191.304688 413.390625 179.261719 444.046875 155.515625 466.777344 C 131.683594 489.589844 99.136719 501.160156 58.785156 501.160156 L -35.453125 501.160156 L -35.453125 270.953125 C -30.5 268.0625 -27.167969 262.691406 -27.167969 256.542969 C -27.167969 247.328125 -34.636719 239.859375 -43.851562 239.859375 C -53.0625 239.859375 -60.53125 247.328125 -60.53125 256.542969 C -60.53125 262.691406 -57.199219 268.0625 -52.246094 270.953125 L -52.246094 517.953125 L 58.785156 517.953125 C 103.613281 517.953125 140.066406 504.816406 167.128906 478.910156 C 194.3125 452.886719 208.097656 418.148438 208.097656 375.664062 C 208.097656 331.011719 195.542969 296.792969 170.777344 273.957031 Z M 77.882812 437.925781 C 82.253906 437.925781 85.800781 441.472656 85.800781 445.847656 C 85.800781 450.222656 82.253906 453.765625 77.882812 453.765625 C 73.507812 453.765625 69.960938 450.21875 69.960938 445.847656 C 69.960938 441.472656 73.507812 437.925781 77.882812 437.925781 Z M -43.851562 248.621094 C -39.476562 248.621094 -35.929688 252.167969 -35.929688 256.542969 C -35.929688 260.917969 -39.476562 264.460938 -43.851562 264.460938 C -48.222656 264.460938 -51.769531 260.917969 -51.769531 256.542969 C -51.769531 252.167969 -48.222656 248.621094 -43.851562 248.621094 Z M -43.851562 248.621094 " fill-opacity="1" fill-rule="nonzero"/></g><g clip-path="url(#eac3bfa7a5)"><path fill="#ffffff" d="M 662.308594 366.734375 L 662.308594 366.730469 L 730.085938 299.839844 L 770.84375 259.613281 C 767.105469 256.402344 763.230469 253.367188 759.222656 250.5 C 755.214844 247.632812 751.085938 244.953125 746.839844 242.453125 C 742.59375 239.953125 738.242188 237.648438 733.789062 235.535156 C 729.339844 233.425781 724.800781 231.515625 720.179688 229.804688 C 715.558594 228.097656 710.867188 226.597656 706.113281 225.304688 C 701.359375 224.011719 696.554688 222.933594 691.703125 222.070312 C 686.851562 221.207031 681.972656 220.558594 677.0625 220.128906 C 672.152344 219.699219 667.234375 219.488281 662.308594 219.492188 C 657.378906 219.488281 652.460938 219.699219 647.550781 220.128906 C 642.644531 220.558594 637.761719 221.207031 632.910156 222.070312 C 628.0625 222.933594 623.257812 224.011719 618.503906 225.304688 C 613.746094 226.597656 609.058594 228.097656 604.4375 229.804688 C 599.8125 231.511719 595.277344 233.425781 590.824219 235.535156 C 586.371094 237.648438 582.023438 239.953125 577.777344 242.453125 C 573.53125 244.953125 569.402344 247.636719 565.394531 250.5 C 561.386719 253.367188 557.511719 256.40625 553.773438 259.617188 L 594.53125 299.839844 Z M 662.308594 366.734375 " fill-opacity="1" fill-rule="nonzero"/></g><g clip-path="url(#20453a91fc)"><path fill="#ffffff" d="M 791.542969 280.796875 L 750.851562 320.953125 L 672.691406 398.09375 L 662.308594 408.34375 L 651.925781 398.09375 L 573.765625 320.953125 L 533.074219 280.792969 C 530.050781 284.480469 527.195312 288.292969 524.5 292.222656 C 521.804688 296.15625 519.285156 300.199219 516.941406 304.347656 C 514.59375 308.496094 512.429688 312.742188 510.449219 317.078125 C 508.46875 321.414062 506.679688 325.824219 505.078125 330.316406 C 503.476562 334.804688 502.070312 339.355469 500.863281 343.96875 C 499.652344 348.578125 498.644531 353.230469 497.832031 357.929688 C 497.023438 362.628906 496.417969 367.351562 496.015625 372.101562 C 495.613281 376.851562 495.417969 381.609375 495.421875 386.378906 C 495.421875 432.453125 514.105469 474.175781 544.308594 504.375 C 552.609375 512.679688 561.6875 520.03125 571.535156 526.425781 L 638.679688 459.285156 L 560.609375 381.214844 L 560.609375 445.304688 L 527.191406 445.304688 L 527.191406 300.539062 L 662.308594 435.65625 L 797.425781 300.539062 L 797.425781 445.304688 L 764.007812 445.304688 L 764.007812 381.214844 L 685.9375 459.285156 L 753.082031 526.429688 C 762.929688 520.03125 772.003906 512.679688 780.308594 504.375 C 810.507812 474.175781 829.191406 432.453125 829.191406 386.375 C 829.199219 381.609375 829 376.851562 828.597656 372.101562 C 828.195312 367.351562 827.589844 362.628906 826.78125 357.929688 C 825.972656 353.230469 824.964844 348.578125 823.753906 343.96875 C 822.542969 339.355469 821.140625 334.804688 819.539062 330.316406 C 817.9375 325.824219 816.144531 321.414062 814.164062 317.078125 C 812.183594 312.742188 810.019531 308.5 807.675781 304.347656 C 805.328125 300.199219 802.808594 296.15625 800.113281 292.226562 C 797.421875 288.292969 794.5625 284.484375 791.542969 280.796875 Z M 791.542969 280.796875 " fill-opacity="1" fill-rule="nonzero"/></g><path fill="#ffffff" d="M 602.863281 542.359375 C 607.601562 544.15625 612.410156 545.738281 617.292969 547.097656 C 622.171875 548.460938 627.105469 549.597656 632.089844 550.511719 C 637.074219 551.425781 642.089844 552.113281 647.136719 552.574219 C 652.183594 553.03125 657.242188 553.261719 662.308594 553.261719 C 667.375 553.261719 672.433594 553.03125 677.480469 552.570312 C 682.527344 552.113281 687.542969 551.425781 692.527344 550.511719 C 697.511719 549.597656 702.445312 548.460938 707.324219 547.097656 C 712.207031 545.734375 717.015625 544.15625 721.753906 542.355469 L 662.308594 482.914062 Z M 602.863281 542.359375 " fill-opacity="1" fill-rule="nonzero"/></svg>