<svg xmlns="http://www.w3.org/2000/svg" xmlns:xlink="http://www.w3.org/1999/xlink" width="1080" zoomAndPan="magnify" viewBox="0 0 810 809.999993" height="1080" preserveAspectRatio="xMidYMid meet" version="1.0"><defs><linearGradient x1="1.554741" gradientTransform="matrix(3.221114, 0, 0, 3.221114, -5.007994, -3.24302)" y1="128" x2="253.020536" gradientUnits="userSpaceOnUse" y2="128" id="46090c776c"><stop stop-opacity="1" stop-color="rgb(99.992371%, 79.241943%, 2.497864%)" offset="0"/><stop stop-opacity="1" stop-color="rgb(99.987793%, 78.511047%, 2.558899%)" offset="0.00390625"/><stop stop-opacity="1" stop-color="rgb(99.983215%, 77.781677%, 2.62146%)" offset="0.0078125"/><stop stop-opacity="1" stop-color="rgb(99.978638%, 77.050781%, 2.684021%)" offset="0.0117188"/><stop stop-opacity="1" stop-color="rgb(99.97406%, 76.319885%, 2.746582%)" offset="0.015625"/><stop stop-opacity="1" stop-color="rgb(99.969482%, 75.588989%, 2.807617%)" offset="0.0195313"/><stop stop-opacity="1" stop-color="rgb(99.964905%, 74.858093%, 2.870178%)" offset="0.0234375"/><stop stop-opacity="1" stop-color="rgb(99.960327%, 74.127197%, 2.932739%)" offset="0.0273438"/><stop stop-opacity="1" stop-color="rgb(99.95575%, 73.396301%, 2.9953%)" offset="0.03125"/><stop stop-opacity="1" stop-color="rgb(99.951172%, 72.665405%, 3.056335%)" offset="0.0351563"/><stop stop-opacity="1" stop-color="rgb(99.946594%, 71.936035%, 3.118896%)" offset="0.0390625"/><stop stop-opacity="1" stop-color="rgb(99.942017%, 71.205139%, 3.181458%)" offset="0.0429688"/><stop stop-opacity="1" stop-color="rgb(99.937439%, 70.474243%, 3.244019%)" offset="0.046875"/><stop stop-opacity="1" stop-color="rgb(99.931335%, 69.743347%, 3.305054%)" offset="0.0507813"/><stop stop-opacity="1" stop-color="rgb(99.926758%, 69.012451%, 3.367615%)" offset="0.0546875"/><stop stop-opacity="1" stop-color="rgb(99.92218%, 68.281555%, 3.42865%)" offset="0.0585938"/><stop stop-opacity="1" stop-color="rgb(99.917603%, 67.550659%, 3.491211%)" offset="0.0625"/><stop stop-opacity="1" stop-color="rgb(99.913025%, 66.819763%, 3.553772%)" offset="0.0664062"/><stop stop-opacity="1" stop-color="rgb(99.908447%, 66.090393%, 3.616333%)" offset="0.0703125"/><stop stop-opacity="1" stop-color="rgb(99.90387%, 65.359497%, 3.677368%)" offset="0.0742188"/><stop stop-opacity="1" stop-color="rgb(99.899292%, 64.628601%, 3.739929%)" offset="0.078125"/><stop stop-opacity="1" stop-color="rgb(99.894714%, 63.897705%, 3.80249%)" offset="0.0820312"/><stop stop-opacity="1" stop-color="rgb(99.890137%, 63.166809%, 3.865051%)" offset="0.0859375"/><stop stop-opacity="1" stop-color="rgb(99.885559%, 62.435913%, 3.926086%)" offset="0.0898438"/><stop stop-opacity="1" stop-color="rgb(99.880981%, 61.705017%, 3.988647%)" offset="0.09375"/><stop stop-opacity="1" stop-color="rgb(99.876404%, 60.974121%, 4.051208%)" offset="0.0976563"/><stop stop-opacity="1" stop-color="rgb(99.871826%, 60.244751%, 4.11377%)" offset="0.101563"/><stop stop-opacity="1" stop-color="rgb(99.867249%, 59.513855%, 4.174805%)" offset="0.105469"/><stop stop-opacity="1" stop-color="rgb(99.862671%, 58.782959%, 4.237366%)" offset="0.109375"/><stop stop-opacity="1" stop-color="rgb(99.858093%, 58.052063%, 4.299927%)" offset="0.113281"/><stop stop-opacity="1" stop-color="rgb(99.853516%, 57.321167%, 4.362488%)" offset="0.117188"/><stop stop-opacity="1" stop-color="rgb(99.848938%, 56.590271%, 4.423523%)" offset="0.121094"/><stop stop-opacity="1" stop-color="rgb(99.84436%, 55.859375%, 4.486084%)" offset="0.125"/><stop stop-opacity="1" stop-color="rgb(99.839783%, 55.128479%, 4.547119%)" offset="0.128906"/><stop stop-opacity="1" stop-color="rgb(99.835205%, 54.399109%, 4.60968%)" offset="0.132813"/><stop stop-opacity="1" stop-color="rgb(99.830627%, 53.668213%, 4.672241%)" offset="0.136719"/><stop stop-opacity="1" stop-color="rgb(99.82605%, 52.937317%, 4.734802%)" offset="0.140625"/><stop stop-opacity="1" stop-color="rgb(99.821472%, 52.206421%, 4.795837%)" offset="0.144531"/><stop stop-opacity="1" stop-color="rgb(99.816895%, 51.475525%, 4.858398%)" offset="0.148438"/><stop stop-opacity="1" stop-color="rgb(99.812317%, 50.744629%, 4.920959%)" offset="0.152344"/><stop stop-opacity="1" stop-color="rgb(99.807739%, 50.013733%, 4.983521%)" offset="0.15625"/><stop stop-opacity="1" stop-color="rgb(99.803162%, 49.282837%, 5.044556%)" offset="0.160156"/><stop stop-opacity="1" stop-color="rgb(99.798584%, 48.553467%, 5.107117%)" offset="0.164062"/><stop stop-opacity="1" stop-color="rgb(99.794006%, 47.822571%, 5.169678%)" offset="0.167969"/><stop stop-opacity="1" stop-color="rgb(99.789429%, 47.091675%, 5.232239%)" offset="0.171875"/><stop stop-opacity="1" stop-color="rgb(99.784851%, 46.360779%, 5.293274%)" offset="0.175781"/><stop stop-opacity="1" stop-color="rgb(99.780273%, 45.629883%, 5.355835%)" offset="0.179688"/><stop stop-opacity="1" stop-color="rgb(99.775696%, 44.898987%, 5.418396%)" offset="0.183594"/><stop stop-opacity="1" stop-color="rgb(99.771118%, 44.168091%, 5.480957%)" offset="0.1875"/><stop stop-opacity="1" stop-color="rgb(99.766541%, 43.437195%, 5.541992%)" offset="0.191406"/><stop stop-opacity="1" stop-color="rgb(99.761963%, 42.706299%, 5.604553%)" offset="0.195313"/><stop stop-opacity="1" stop-color="rgb(99.757385%, 41.975403%, 5.665588%)" offset="0.199219"/><stop stop-opacity="1" stop-color="rgb(99.752808%, 41.246033%, 5.728149%)" offset="0.203125"/><stop stop-opacity="1" stop-color="rgb(99.74823%, 40.515137%, 5.79071%)" offset="0.207031"/><stop stop-opacity="1" stop-color="rgb(99.743652%, 39.784241%, 5.853271%)" offset="0.210938"/><stop stop-opacity="1" stop-color="rgb(99.739075%, 39.053345%, 5.914307%)" offset="0.214844"/><stop stop-opacity="1" stop-color="rgb(99.734497%, 38.322449%, 5.976868%)" offset="0.21875"/><stop stop-opacity="1" stop-color="rgb(99.729919%, 37.591553%, 6.039429%)" offset="0.222656"/><stop stop-opacity="1" stop-color="rgb(99.725342%, 36.860657%, 6.10199%)" offset="0.226563"/><stop stop-opacity="1" stop-color="rgb(99.720764%, 36.129761%, 6.163025%)" offset="0.230469"/><stop stop-opacity="1" stop-color="rgb(99.716187%, 35.400391%, 6.225586%)" offset="0.234375"/><stop stop-opacity="1" stop-color="rgb(99.711609%, 34.669495%, 6.288147%)" offset="0.238281"/><stop stop-opacity="1" stop-color="rgb(99.707031%, 33.938599%, 6.350708%)" offset="0.242188"/><stop stop-opacity="1" stop-color="rgb(99.702454%, 33.207703%, 6.411743%)" offset="0.246094"/><stop stop-opacity="1" stop-color="rgb(99.697876%, 32.476807%, 6.474304%)" offset="0.25"/><stop stop-opacity="1" stop-color="rgb(99.693298%, 31.745911%, 6.536865%)" offset="0.253906"/><stop stop-opacity="1" stop-color="rgb(99.688721%, 31.015015%, 6.599426%)" offset="0.257813"/><stop stop-opacity="1" stop-color="rgb(99.684143%, 30.284119%, 6.660461%)" offset="0.261719"/><stop stop-opacity="1" stop-color="rgb(99.679565%, 29.554749%, 6.723022%)" offset="0.265625"/><stop stop-opacity="1" stop-color="rgb(99.674988%, 28.823853%, 6.784058%)" offset="0.269531"/><stop stop-opacity="1" stop-color="rgb(99.67041%, 28.092957%, 6.846619%)" offset="0.273438"/><stop stop-opacity="1" stop-color="rgb(99.665833%, 27.362061%, 6.90918%)" offset="0.277344"/><stop stop-opacity="1" stop-color="rgb(99.661255%, 26.631165%, 6.971741%)" offset="0.28125"/><stop stop-opacity="1" stop-color="rgb(99.655151%, 25.900269%, 7.032776%)" offset="0.285156"/><stop stop-opacity="1" stop-color="rgb(99.650574%, 25.169373%, 7.095337%)" offset="0.289062"/><stop stop-opacity="1" stop-color="rgb(99.645996%, 24.438477%, 7.157898%)" offset="0.292969"/><stop stop-opacity="1" stop-color="rgb(99.641418%, 23.709106%, 7.220459%)" offset="0.296875"/><stop stop-opacity="1" stop-color="rgb(99.636841%, 22.97821%, 7.281494%)" offset="0.300781"/><stop stop-opacity="1" stop-color="rgb(99.632263%, 22.247314%, 7.344055%)" offset="0.304688"/><stop stop-opacity="1" stop-color="rgb(99.627686%, 21.516418%, 7.406616%)" offset="0.308594"/><stop stop-opacity="1" stop-color="rgb(99.623108%, 20.785522%, 7.469177%)" offset="0.3125"/><stop stop-opacity="1" stop-color="rgb(99.61853%, 20.054626%, 7.530212%)" offset="0.316406"/><stop stop-opacity="1" stop-color="rgb(99.613953%, 19.32373%, 7.592773%)" offset="0.320312"/><stop stop-opacity="1" stop-color="rgb(99.609375%, 18.592834%, 7.655334%)" offset="0.324219"/><stop stop-opacity="1" stop-color="rgb(99.604797%, 17.863464%, 7.717896%)" offset="0.328125"/><stop stop-opacity="1" stop-color="rgb(99.581909%, 17.3172%, 7.757568%)" offset="0.332031"/><stop stop-opacity="1" stop-color="rgb(99.559021%, 16.770935%, 7.798767%)" offset="0.335937"/><stop stop-opacity="1" stop-color="rgb(99.501038%, 16.5802%, 7.798767%)" offset="0.34375"/><stop stop-opacity="1" stop-color="rgb(99.383545%, 16.201782%, 7.798767%)" offset="0.351563"/><stop stop-opacity="1" stop-color="rgb(99.266052%, 15.823364%, 7.798767%)" offset="0.359375"/><stop stop-opacity="1" stop-color="rgb(99.14856%, 15.444946%, 7.798767%)" offset="0.367188"/><stop stop-opacity="1" stop-color="rgb(99.032593%, 15.066528%, 7.798767%)" offset="0.375"/><stop stop-opacity="1" stop-color="rgb(98.9151%, 14.68811%, 7.798767%)" offset="0.382812"/><stop stop-opacity="1" stop-color="rgb(98.797607%, 14.309692%, 7.798767%)" offset="0.390625"/><stop stop-opacity="1" stop-color="rgb(98.681641%, 13.931274%, 7.798767%)" offset="0.398438"/><stop stop-opacity="1" stop-color="rgb(98.564148%, 13.551331%, 7.798767%)" offset="0.40625"/><stop stop-opacity="1" stop-color="rgb(98.446655%, 13.172913%, 7.798767%)" offset="0.414062"/><stop stop-opacity="1" stop-color="rgb(98.330688%, 12.794495%, 7.798767%)" offset="0.421875"/><stop stop-opacity="1" stop-color="rgb(98.213196%, 12.416077%, 7.798767%)" offset="0.429687"/><stop stop-opacity="1" stop-color="rgb(98.095703%, 12.037659%, 7.798767%)" offset="0.4375"/><stop stop-opacity="1" stop-color="rgb(97.979736%, 11.659241%, 7.798767%)" offset="0.445313"/><stop stop-opacity="1" stop-color="rgb(97.862244%, 11.280823%, 7.798767%)" offset="0.453125"/><stop stop-opacity="1" stop-color="rgb(97.744751%, 10.902405%, 7.798767%)" offset="0.460938"/><stop stop-opacity="1" stop-color="rgb(97.627258%, 10.522461%, 7.798767%)" offset="0.46875"/><stop stop-opacity="1" stop-color="rgb(97.511292%, 10.144043%, 7.798767%)" offset="0.476562"/><stop stop-opacity="1" stop-color="rgb(97.393799%, 9.765625%, 7.798767%)" offset="0.484375"/><stop stop-opacity="1" stop-color="rgb(97.276306%, 9.387207%, 7.798767%)" offset="0.492188"/><stop stop-opacity="1" stop-color="rgb(97.160339%, 9.008789%, 7.798767%)" offset="0.5"/><stop stop-opacity="1" stop-color="rgb(97.042847%, 8.630371%, 7.798767%)" offset="0.507812"/><stop stop-opacity="1" stop-color="rgb(96.925354%, 8.251953%, 7.798767%)" offset="0.515625"/><stop stop-opacity="1" stop-color="rgb(96.809387%, 7.873535%, 7.798767%)" offset="0.523438"/><stop stop-opacity="1" stop-color="rgb(96.691895%, 7.495117%, 7.798767%)" offset="0.53125"/><stop stop-opacity="1" stop-color="rgb(96.574402%, 7.115173%, 7.798767%)" offset="0.539062"/><stop stop-opacity="1" stop-color="rgb(96.458435%, 6.736755%, 7.798767%)" offset="0.546875"/><stop stop-opacity="1" stop-color="rgb(96.340942%, 6.358337%, 7.798767%)" offset="0.554687"/><stop stop-opacity="1" stop-color="rgb(96.22345%, 5.979919%, 7.798767%)" offset="0.5625"/><stop stop-opacity="1" stop-color="rgb(96.105957%, 5.601501%, 7.798767%)" offset="0.570312"/><stop stop-opacity="1" stop-color="rgb(95.98999%, 5.223083%, 7.798767%)" offset="0.578125"/><stop stop-opacity="1" stop-color="rgb(95.872498%, 4.844666%, 7.798767%)" offset="0.585937"/><stop stop-opacity="1" stop-color="rgb(95.755005%, 4.466248%, 7.798767%)" offset="0.59375"/><stop stop-opacity="1" stop-color="rgb(95.639038%, 4.086304%, 7.798767%)" offset="0.601562"/><stop stop-opacity="1" stop-color="rgb(95.521545%, 3.707886%, 7.798767%)" offset="0.609375"/><stop stop-opacity="1" stop-color="rgb(95.404053%, 3.329468%, 7.798767%)" offset="0.617187"/><stop stop-opacity="1" stop-color="rgb(95.288086%, 2.95105%, 7.798767%)" offset="0.625"/><stop stop-opacity="1" stop-color="rgb(95.170593%, 2.572632%, 7.798767%)" offset="0.632813"/><stop stop-opacity="1" stop-color="rgb(95.053101%, 2.194214%, 7.798767%)" offset="0.640625"/><stop stop-opacity="1" stop-color="rgb(94.937134%, 1.815796%, 7.798767%)" offset="0.648438"/><stop stop-opacity="1" stop-color="rgb(94.819641%, 1.437378%, 7.798767%)" offset="0.65625"/><stop stop-opacity="1" stop-color="rgb(94.702148%, 1.057434%, 7.798767%)" offset="0.664062"/><stop stop-opacity="1" stop-color="rgb(94.584656%, 0.679016%, 7.798767%)" offset="0.671875"/><stop stop-opacity="1" stop-color="rgb(94.338989%, 0.436401%, 7.815552%)" offset="0.6875"/><stop stop-opacity="1" stop-color="rgb(94.052124%, 0.378418%, 7.841492%)" offset="0.695312"/><stop stop-opacity="1" stop-color="rgb(93.85376%, 0.369263%, 7.859802%)" offset="0.703125"/><stop stop-opacity="1" stop-color="rgb(93.655396%, 0.360107%, 7.878113%)" offset="0.710938"/><stop stop-opacity="1" stop-color="rgb(93.458557%, 0.350952%, 7.896423%)" offset="0.71875"/><stop stop-opacity="1" stop-color="rgb(93.260193%, 0.341797%, 7.914734%)" offset="0.726562"/><stop stop-opacity="1" stop-color="rgb(93.061829%, 0.332642%, 7.933044%)" offset="0.734375"/><stop stop-opacity="1" stop-color="rgb(92.86499%, 0.323486%, 7.951355%)" offset="0.742188"/><stop stop-opacity="1" stop-color="rgb(92.666626%, 0.314331%, 7.969666%)" offset="0.75"/><stop stop-opacity="1" stop-color="rgb(92.468262%, 0.305176%, 7.987976%)" offset="0.757812"/><stop stop-opacity="1" stop-color="rgb(92.269897%, 0.296021%, 8.006287%)" offset="0.765625"/><stop stop-opacity="1" stop-color="rgb(92.073059%, 0.286865%, 8.024597%)" offset="0.773437"/><stop stop-opacity="1" stop-color="rgb(91.874695%, 0.27771%, 8.042908%)" offset="0.78125"/><stop stop-opacity="1" stop-color="rgb(91.676331%, 0.268555%, 8.061218%)" offset="0.789062"/><stop stop-opacity="1" stop-color="rgb(91.479492%, 0.259399%, 8.079529%)" offset="0.796875"/><stop stop-opacity="1" stop-color="rgb(91.281128%, 0.250244%, 8.097839%)" offset="0.804687"/><stop stop-opacity="1" stop-color="rgb(91.082764%, 0.239563%, 8.117676%)" offset="0.8125"/><stop stop-opacity="1" stop-color="rgb(90.884399%, 0.230408%, 8.135986%)" offset="0.820313"/><stop stop-opacity="1" stop-color="rgb(90.687561%, 0.221252%, 8.154297%)" offset="0.828125"/><stop stop-opacity="1" stop-color="rgb(90.489197%, 0.212097%, 8.172607%)" offset="0.835938"/><stop stop-opacity="1" stop-color="rgb(90.290833%, 0.202942%, 8.190918%)" offset="0.84375"/><stop stop-opacity="1" stop-color="rgb(90.093994%, 0.193787%, 8.209229%)" offset="0.851562"/><stop stop-opacity="1" stop-color="rgb(89.89563%, 0.184631%, 8.227539%)" offset="0.859375"/><stop stop-opacity="1" stop-color="rgb(89.697266%, 0.175476%, 8.24585%)" offset="0.867188"/><stop stop-opacity="1" stop-color="rgb(89.498901%, 0.166321%, 8.26416%)" offset="0.875"/><stop stop-opacity="1" stop-color="rgb(89.302063%, 0.157166%, 8.282471%)" offset="0.882812"/><stop stop-opacity="1" stop-color="rgb(89.103699%, 0.14801%, 8.300781%)" offset="0.890625"/><stop stop-opacity="1" stop-color="rgb(88.905334%, 0.138855%, 8.319092%)" offset="0.898438"/><stop stop-opacity="1" stop-color="rgb(88.708496%, 0.1297%, 8.337402%)" offset="0.90625"/><stop stop-opacity="1" stop-color="rgb(88.510132%, 0.120544%, 8.355713%)" offset="0.914062"/><stop stop-opacity="1" stop-color="rgb(88.311768%, 0.111389%, 8.374023%)" offset="0.921875"/><stop stop-opacity="1" stop-color="rgb(88.113403%, 0.102234%, 8.39386%)" offset="0.929688"/><stop stop-opacity="1" stop-color="rgb(87.916565%, 0.0930786%, 8.41217%)" offset="0.9375"/><stop stop-opacity="1" stop-color="rgb(87.718201%, 0.0839233%, 8.430481%)" offset="0.945312"/><stop stop-opacity="1" stop-color="rgb(87.519836%, 0.0747681%, 8.448792%)" offset="0.953125"/><stop stop-opacity="1" stop-color="rgb(87.322998%, 0.0656128%, 8.467102%)" offset="0.960937"/><stop stop-opacity="1" stop-color="rgb(87.124634%, 0.0564575%, 8.485413%)" offset="0.96875"/><stop stop-opacity="1" stop-color="rgb(86.92627%, 0.0473022%, 8.503723%)" offset="0.976562"/><stop stop-opacity="1" stop-color="rgb(86.727905%, 0.038147%, 8.522034%)" offset="0.984375"/><stop stop-opacity="1" stop-color="rgb(86.531067%, 0.0289917%, 8.540344%)" offset="0.992187"/><stop stop-opacity="1" stop-color="rgb(86.332703%, 0.0198364%, 8.558655%)" offset="1"/></linearGradient><clipPath id="318fbc237f"><path d="M 379.449219 0 L 810 0 L 810 496.523438 L 379.449219 496.523438 Z M 379.449219 0 " clip-rule="nonzero"/></clipPath><clipPath id="681e0ff497"><path d="M 0 0 L 551.417969 0 L 551.417969 810 L 0 810 Z M 0 0 " clip-rule="nonzero"/></clipPath><clipPath id="071292ad7b"><path d="M 470 379.050781 L 792 379.050781 L 792 597 L 470 597 Z M 470 379.050781 " clip-rule="nonzero"/></clipPath><clipPath id="e33c87dd92"><path d="M 433.941406 469 L 810 469 L 810 810 L 433.941406 810 Z M 433.941406 469 " clip-rule="nonzero"/></clipPath><clipPath id="452d37c14a"><path d="M 417.410156 296.054688 L 484.285156 296.054688 L 484.285156 364.546875 L 417.410156 364.546875 Z M 417.410156 296.054688 " clip-rule="nonzero"/></clipPath><clipPath id="76d83b027a"><path d="M 484.167969 320.117188 C 484.167969 341.695312 481.710938 347.183594 478.300781 351.347656 C 475.085938 355.511719 470.355469 359.296875 465.621094 361.378906 C 460.703125 363.460938 454.835938 364.59375 449.535156 364.214844 C 444.234375 364.027344 438.367188 362.132812 434.015625 359.484375 C 429.472656 356.644531 425.121094 352.480469 422.46875 347.941406 C 419.632812 343.398438 417.929688 337.71875 417.550781 332.421875 C 417.171875 327.121094 418.308594 321.066406 420.578125 316.332031 C 422.660156 311.601562 426.445312 306.679688 430.609375 303.464844 C 434.773438 300.246094 440.261719 297.785156 445.371094 296.839844 C 450.671875 295.894531 456.726562 296.273438 461.648438 297.785156 C 466.757812 299.300781 475.652344 306.300781 475.652344 306.300781 " clip-rule="nonzero"/></clipPath><clipPath id="7fe3aaaa15"><path d="M 768.867188 766.367188 L 810 766.367188 L 810 810 L 768.867188 810 Z M 768.867188 766.367188 " clip-rule="nonzero"/></clipPath><clipPath id="17cdc1aebc"><path d="M 835.625 790.621094 C 835.625 812.007812 833.167969 817.683594 829.949219 821.847656 C 826.542969 826.011719 821.8125 829.609375 817.078125 831.878906 C 812.160156 833.960938 806.292969 835.097656 800.992188 834.71875 C 795.691406 834.527344 790.015625 832.636719 785.472656 829.988281 C 780.929688 827.148438 776.578125 822.984375 773.929688 818.441406 C 771.089844 813.898438 769.386719 808.03125 769.007812 802.734375 C 768.816406 797.625 769.765625 791.566406 772.035156 786.835938 C 774.117188 781.914062 777.902344 777.183594 782.066406 773.964844 C 786.230469 770.75 791.71875 768.289062 796.828125 767.152344 C 802.128906 766.207031 808.183594 766.585938 813.105469 768.289062 C 818.214844 769.800781 827.109375 776.617188 827.109375 776.617188 " clip-rule="nonzero"/></clipPath><clipPath id="f54181f6cb"><path d="M 433.941406 765.570312 L 493.535156 765.570312 L 493.535156 810 L 433.941406 810 Z M 433.941406 765.570312 " clip-rule="nonzero"/></clipPath><clipPath id="a813992fc3"><path d="M 464 198.652344 L 779.804688 198.652344 L 779.804688 410.621094 L 464 410.621094 Z M 464 198.652344 " clip-rule="nonzero"/></clipPath><clipPath id="301beb0dd2"><path d="M 732.125 188.652344 L 772.367188 188.652344 L 772.367188 246.78125 L 732.125 246.78125 Z M 732.125 188.652344 " clip-rule="nonzero"/></clipPath><clipPath id="3ccd930e08"><path d="M 765.789062 199.9375 C 747.808594 226.8125 748.1875 232.492188 746.296875 236.84375 C 744.78125 240.441406 742.699219 244.601562 740.238281 245.738281 C 738.347656 246.683594 734.75 246.117188 733.425781 244.980469 C 732.289062 243.847656 731.910156 241.007812 732.667969 239.304688 C 733.617188 237.222656 738.726562 236.464844 740.808594 233.816406 C 742.890625 231.164062 742.511719 227.003906 744.78125 222.839844 C 748.566406 216.214844 758.976562 201.261719 763.707031 199.371094 C 765.789062 198.613281 768.0625 199.179688 769.007812 200.316406 C 770.144531 201.261719 770.519531 203.34375 770.144531 205.617188 C 769.007812 210.726562 758.785156 223.785156 754.054688 228.894531 C 751.214844 231.921875 748.378906 234.761719 746.105469 234.949219 C 744.59375 235.140625 743.457031 232.492188 741.941406 232.300781 C 740.429688 232.113281 737.589844 234.382812 737.402344 234.003906 C 737.023438 233.246094 746.105469 222.460938 748.945312 222.460938 C 750.839844 222.460938 753.296875 224.921875 753.488281 227.191406 C 753.867188 230.976562 746.105469 241.195312 742.320312 244.035156 C 740.238281 245.929688 737.210938 247.253906 735.507812 246.496094 C 733.992188 245.929688 732.289062 242.710938 732.667969 241.007812 C 733.238281 238.925781 737.402344 237.980469 740.050781 235.328125 C 744.214844 230.597656 750.082031 221.136719 754.433594 214.132812 C 758.21875 208.074219 764.085938 200.695312 764.84375 196.152344 C 765.222656 193.691406 762.949219 191.421875 763.898438 190.285156 C 764.652344 189.148438 768.816406 188.769531 770.144531 189.71875 C 771.277344 190.664062 772.222656 194.449219 771.46875 195.964844 C 770.710938 197.289062 767.304688 198.421875 765.789062 198.046875 C 764.464844 197.667969 762.949219 196.152344 762.761719 194.828125 C 762.382812 193.3125 763.707031 190.285156 764.84375 189.527344 C 765.980469 188.769531 768.0625 188.769531 769.386719 189.339844 C 770.519531 189.90625 771.65625 191.609375 772.035156 192.933594 C 772.222656 194.070312 771.46875 196.152344 770.519531 197.097656 C 769.574219 197.855469 767.492188 198.421875 766.167969 198.234375 C 765.03125 197.855469 763.328125 196.53125 762.949219 195.207031 C 762.382812 193.882812 763.519531 190.851562 764.464844 189.71875 C 765.222656 188.960938 767.304688 188.769531 767.304688 188.769531 C 767.304688 188.960938 763.140625 191.421875 763.140625 191.230469 C 763.140625 191.230469 764.652344 189.339844 765.789062 189.148438 C 766.925781 188.769531 769.007812 188.769531 770.144531 189.71875 C 771.847656 191.421875 772.601562 197.289062 772.035156 201.640625 C 771.089844 206.941406 766.355469 212.996094 762.382812 219.242188 C 757.460938 227.003906 749.324219 240.628906 743.644531 244.414062 C 740.808594 246.308594 737.402344 247.0625 735.507812 246.496094 C 734.371094 246.308594 733.617188 245.359375 733.046875 244.226562 C 732.667969 243.089844 732.480469 241.574219 733.046875 239.871094 C 734.371094 236.277344 740.996094 226.8125 744.972656 225.867188 C 747.808594 225.109375 752.730469 227.191406 753.109375 229.082031 C 753.867188 231.542969 747.054688 239.113281 744.023438 240.628906 C 741.941406 241.574219 739.671875 241.195312 737.96875 240.628906 C 736.453125 240.0625 734.75 238.925781 734.183594 237.601562 C 733.617188 235.898438 733.992188 233.4375 735.128906 231.355469 C 737.023438 228.136719 743.457031 226.054688 747.429688 221.890625 C 752.730469 216.214844 758.785156 202.585938 762.761719 199.9375 C 764.464844 198.992188 765.789062 198.613281 767.113281 199.179688 C 768.4375 199.558594 770.332031 201.261719 770.519531 203.34375 C 770.519531 207.699219 758.785156 218.105469 755 224.542969 C 751.972656 229.652344 751.027344 234.949219 748.1875 238.546875 C 746.105469 241.195312 741.753906 244.980469 740.429688 244.414062 C 739.671875 244.035156 741.375 239.871094 740.238281 238.925781 C 739.292969 237.789062 735.128906 240.0625 734.183594 238.734375 C 732.289062 235.707031 740.808594 219.808594 745.160156 211.859375 C 749.132812 205.046875 755 195.207031 759.164062 193.503906 C 761.4375 192.746094 764.277344 193.503906 765.410156 194.636719 C 766.355469 195.585938 765.789062 199.9375 765.789062 199.9375 " clip-rule="nonzero"/></clipPath><clipPath id="ef731ab959"><path d="M 726.125 215.535156 L 743.875 215.535156 L 743.875 239.207031 L 726.125 239.207031 Z M 726.125 215.535156 " clip-rule="nonzero"/></clipPath><clipPath id="8b00bc83fd"><path d="M 738.726562 228.707031 C 731.535156 239.871094 729.640625 239.492188 728.503906 238.734375 C 727.371094 238.167969 726.234375 236.84375 726.234375 235.140625 C 725.855469 231.542969 730.777344 220.757812 733.992188 217.917969 C 736.074219 216.214844 739.292969 215.457031 740.996094 216.023438 C 742.132812 216.402344 743.457031 218.296875 743.644531 219.429688 C 744.023438 220.378906 743.835938 221.890625 743.078125 222.648438 C 742.320312 223.785156 739.859375 225.109375 738.535156 225.109375 C 737.210938 224.921875 735.507812 223.785156 734.941406 222.648438 C 734.183594 221.324219 734.183594 219.242188 734.941406 218.105469 C 735.507812 216.972656 737.210938 215.835938 738.535156 215.644531 C 739.859375 215.457031 741.753906 216.402344 742.699219 217.351562 C 743.457031 218.296875 744.023438 220.378906 743.644531 221.703125 C 743.269531 222.839844 741.753906 224.542969 740.617188 224.921875 C 739.105469 225.296875 736.074219 224.164062 735.128906 223.027344 C 734.371094 221.890625 734.183594 219.808594 734.75 218.675781 C 735.128906 217.539062 736.453125 216.214844 737.589844 215.835938 C 738.726562 215.457031 740.808594 215.835938 741.941406 216.59375 C 742.890625 217.351562 743.835938 218.863281 743.835938 220.566406 C 743.644531 224.351562 737.96875 235.140625 734.5625 237.601562 C 732.667969 239.113281 729.828125 239.683594 728.503906 238.734375 C 727.179688 237.980469 726.234375 234.949219 726.613281 232.867188 C 726.992188 229.839844 730.777344 223.40625 733.046875 222.460938 C 734.371094 221.890625 736.453125 222.460938 737.402344 223.40625 C 738.347656 224.542969 738.726562 228.707031 738.726562 228.707031 " clip-rule="nonzero"/></clipPath><clipPath id="6772c047ef"><path d="M 796.527344 259.347656 L 806.210938 259.347656 L 806.210938 268.839844 L 796.527344 268.839844 Z M 796.527344 259.347656 " clip-rule="nonzero"/></clipPath><clipPath id="f111dee7b4"><path d="M 801.179688 268.828125 C 796.640625 265.609375 796.449219 263.53125 796.828125 262.394531 C 797.394531 261.070312 798.910156 259.742188 800.234375 259.554688 C 801.558594 259.175781 803.640625 259.742188 804.589844 260.691406 C 805.535156 261.636719 806.101562 263.53125 805.914062 264.855469 C 805.722656 266.179688 804.398438 267.882812 803.261719 268.449219 C 802.128906 269.019531 799.855469 268.828125 798.910156 268.070312 C 797.773438 267.503906 796.449219 265.609375 796.640625 264.285156 C 796.640625 262.773438 799.667969 259.554688 801.179688 259.367188 C 802.882812 259.367188 805.722656 261.824219 806.101562 263.339844 C 806.480469 264.664062 805.535156 266.558594 804.589844 267.503906 C 803.832031 268.261719 801.558594 268.828125 801.558594 268.828125 " clip-rule="nonzero"/></clipPath><clipPath id="4df362092a"><path d="M 746.433594 193.382812 L 810 193.382812 L 810 305.167969 L 746.433594 305.167969 Z M 746.433594 193.382812 " clip-rule="nonzero"/></clipPath><clipPath id="d03e9af0ab"><path d="M 774.304688 207.507812 C 767.304688 301.191406 764.84375 303.273438 762.003906 304.410156 C 759.734375 305.546875 756.136719 304.976562 754.054688 304.410156 C 752.164062 303.652344 750.648438 302.707031 749.511719 301.191406 C 748.1875 299.300781 746.675781 296.460938 746.863281 293.621094 C 746.863281 289.835938 749.703125 286.050781 752.730469 280.5625 C 758.785156 269.773438 778.089844 245.550781 783.582031 235.140625 C 786.230469 230.21875 785.472656 224.730469 788.121094 223.785156 C 790.582031 222.839844 797.394531 226.625 799.289062 229.839844 C 801.371094 233.625 800.992188 241.007812 798.722656 245.738281 C 795.882812 251.417969 785.285156 261.257812 780.742188 260.691406 C 777.523438 260.3125 775.253906 255.390625 773.359375 251.226562 C 770.519531 245.359375 768.25 233.4375 768.0625 227.949219 C 767.871094 224.921875 768.0625 223.027344 769.195312 221.136719 C 770.332031 218.863281 772.601562 216.402344 775.0625 215.644531 C 777.902344 214.699219 783.011719 215.269531 785.660156 216.78125 C 787.933594 218.105469 789.257812 220 790.394531 223.214844 C 792.476562 229.652344 791.71875 249.144531 790.394531 255.011719 C 789.824219 257.472656 789.257812 258.609375 787.933594 259.933594 C 786.230469 261.449219 783.011719 263.152344 780.742188 263.53125 C 778.847656 263.90625 776.957031 263.71875 775.253906 262.960938 C 773.171875 262.015625 770.710938 260.5 769.195312 257.664062 C 766.546875 251.796875 765.789062 235.519531 768.0625 226.246094 C 769.953125 217.726562 776.578125 208.832031 780.171875 203.34375 C 782.445312 200.125 783.957031 197.476562 786.417969 195.773438 C 788.5 194.449219 790.960938 193.503906 793.234375 193.503906 C 795.503906 193.503906 798.34375 194.261719 800.046875 195.964844 C 802.316406 197.855469 804.398438 202.585938 804.589844 205.617188 C 804.589844 208.074219 803.453125 210.535156 801.75 212.238281 C 799.667969 214.320312 794.9375 216.59375 791.90625 216.214844 C 788.691406 215.835938 784.527344 212.996094 783.203125 210.15625 C 781.6875 207.320312 782.066406 202.207031 783.203125 199.558594 C 784.148438 197.289062 786.417969 195.585938 788.5 194.636719 C 790.582031 193.691406 793.421875 193.3125 795.691406 193.882812 C 797.964844 194.261719 800.425781 195.585938 801.9375 197.667969 C 803.640625 199.9375 804.964844 204.289062 804.019531 208.074219 C 802.882812 213.566406 793.234375 218.863281 790.773438 226.246094 C 787.742188 234.949219 792.097656 251.796875 789.449219 257.664062 C 787.933594 260.5 785.851562 262.203125 783.390625 262.960938 C 780.550781 263.90625 775.441406 263.53125 772.980469 261.636719 C 770.332031 259.933594 769.007812 256.335938 768.0625 252.363281 C 766.355469 245.929688 766.925781 232.300781 768.0625 226.433594 C 768.628906 223.027344 768.816406 220.757812 770.710938 218.863281 C 772.792969 216.59375 777.714844 214.890625 780.550781 214.890625 C 782.445312 214.890625 784.148438 215.644531 785.660156 216.78125 C 787.554688 218.105469 789.636719 220.378906 790.394531 223.214844 C 791.527344 227.378906 791.71875 236.277344 788.878906 239.683594 C 786.230469 242.710938 776.765625 245.171875 775.253906 243.277344 C 772.792969 240.25 783.203125 216.59375 789.824219 211.671875 C 794.179688 208.265625 801.75 206.941406 805.34375 208.832031 C 808.941406 210.914062 810.644531 218.863281 811.023438 223.785156 C 811.402344 228.136719 809.699219 232.492188 808.375 236.464844 C 807.046875 240.25 805.535156 242.710938 802.695312 247.441406 C 796.449219 257.664062 773.171875 285.863281 769.574219 293.8125 C 768.4375 296.460938 769.195312 297.597656 768.0625 299.109375 C 766.925781 301.191406 764.464844 303.652344 762.003906 304.410156 C 759.734375 305.355469 756.328125 305.167969 754.054688 304.410156 C 751.59375 303.464844 749.132812 300.8125 748 298.921875 C 747.054688 297.21875 747.054688 296.460938 746.863281 293.621094 C 745.726562 281.886719 747.429688 215.269531 752.164062 202.964844 C 753.675781 199.371094 755.191406 198.046875 757.273438 196.71875 C 759.542969 195.585938 762.761719 195.015625 765.222656 195.394531 C 767.683594 195.964844 770.519531 197.855469 772.035156 199.75 C 773.550781 201.832031 774.304688 207.507812 774.304688 207.507812 " clip-rule="nonzero"/></clipPath><clipPath id="865da17ed8"><path d="M 788.414062 213.289062 L 810 213.289062 L 810 272 L 788.414062 272 Z M 788.414062 213.289062 " clip-rule="nonzero"/></clipPath><clipPath id="a5abb33d6e"><path d="M 813.105469 224.542969 C 811.78125 261.636719 808.941406 264.476562 806.292969 265.613281 C 803.832031 266.746094 800.613281 266.558594 798.152344 265.613281 C 795.882812 264.664062 793.609375 263.152344 792.097656 260.3125 C 789.445312 254.824219 788.121094 239.492188 790.015625 232.113281 C 791.339844 226.625 794.9375 220.378906 798.722656 219.054688 C 802.128906 217.726562 808.5625 219.808594 811.402344 222.269531 C 814.050781 224.730469 815.375 228.515625 815.945312 233.246094 C 816.699219 241.386719 812.726562 262.015625 808.941406 267.691406 C 807.238281 270.152344 805.15625 271.101562 802.882812 271.667969 C 800.804688 272.234375 797.773438 272.046875 795.691406 271.289062 C 793.609375 270.34375 791.339844 268.640625 790.203125 266.558594 C 789.070312 264.664062 788.121094 261.824219 788.691406 259.554688 C 789.257812 256.527344 792.097656 252.363281 794.558594 250.660156 C 796.640625 249.335938 799.476562 248.957031 801.75 249.523438 C 804.589844 250.28125 808.941406 253.121094 810.265625 255.960938 C 811.589844 258.796875 811.023438 263.90625 809.699219 266.558594 C 808.5625 268.828125 806.292969 270.34375 804.210938 271.289062 C 801.9375 272.046875 799.097656 272.234375 796.828125 271.667969 C 794.746094 271.101562 792.285156 269.398438 790.960938 267.691406 C 789.445312 265.800781 788.691406 263.339844 788.5 260.691406 C 788.3125 257.09375 789.445312 251.796875 791.152344 247.820312 C 792.664062 244.226562 794.558594 240.628906 797.773438 238.167969 C 801.371094 235.140625 809.886719 230.410156 812.726562 232.113281 C 815.945312 234.382812 814.429688 249.523438 813.671875 255.011719 C 813.105469 258.230469 812.347656 260.691406 810.644531 262.582031 C 809.128906 264.476562 805.914062 265.800781 803.640625 266.367188 C 801.75 266.558594 799.855469 266.367188 798.152344 265.613281 C 796.070312 264.664062 793.609375 263.339844 792.097656 260.3125 C 789.070312 253.308594 789.257812 225.675781 791.71875 219.242188 C 792.476562 216.972656 793.609375 216.214844 795.3125 215.269531 C 797.207031 214.132812 800.613281 212.996094 803.074219 213.375 C 805.535156 213.566406 808.5625 215.269531 810.265625 216.972656 C 811.96875 218.863281 813.105469 224.542969 813.105469 224.542969 " clip-rule="nonzero"/></clipPath><clipPath id="b936d2d700"><path d="M 794.5625 227.378906 L 810 227.378906 L 810 259.328125 L 794.5625 259.328125 Z M 794.5625 227.378906 " clip-rule="nonzero"/></clipPath></defs><rect x="-81" width="972" fill="#ffffff" y="-80.999999" height="971.999992" fill-opacity="1"/><rect x="-81" width="972" fill="#ffffff" y="-80.999999" height="971.999992" fill-opacity="1"/><rect x="-81" fill="url(#46090c776c)" width="972" y="-80.999999" height="971.999992"/><g clip-path="url(#318fbc237f)"><path fill="#ffffff" d="M 720.183594 366.804688 C 709.890625 366.804688 700.589844 361.660156 695.445312 354.464844 C 676.90625 365.8125 655.324219 371.953125 631.636719 371.953125 C 560.636719 371.953125 504.023438 314.34375 504.023438 244.335938 C 504.023438 173.277344 561.628906 116.664062 631.636719 116.664062 C 655.324219 116.664062 676.90625 122.863281 695.445312 134.210938 C 700.589844 126.957031 709.890625 121.8125 720.183594 121.8125 L 809.722656 121.8125 L 836.511719 95.082031 C 836.511719 94.03125 835.457031 93.035156 834.40625 90.929688 L 785.042969 41.570312 C 781.945312 38.46875 775.742188 37.417969 771.648438 40.515625 L 735.566406 64.203125 C 720.183594 54.90625 703.691406 48.761719 686.203125 43.617188 L 676.90625 1.390625 C 675.910156 -3.757812 671.816406 -6.855469 666.609375 -6.855469 L 595.609375 -6.855469 C 590.464844 -6.855469 586.371094 -3.757812 585.316406 1.390625 L 576.074219 43.617188 C 558.53125 48.761719 542.097656 54.90625 526.65625 64.203125 L 490.628906 40.515625 C 486.476562 37.417969 481.332031 38.46875 477.238281 41.570312 L 427.816406 90.929688 C 424.71875 94.03125 423.722656 100.230469 426.824219 104.324219 L 450.449219 140.351562 C 441.210938 155.792969 435.011719 172.285156 429.863281 189.769531 L 387.695312 199.011719 C 382.550781 200.0625 379.449219 204.15625 379.449219 209.304688 L 379.449219 279.3125 C 379.449219 284.457031 382.550781 288.550781 387.695312 289.605469 L 429.863281 298.84375 C 434.015625 316.390625 441.210938 332.824219 450.449219 348.265625 L 426.824219 385.34375 C 423.722656 389.4375 424.71875 394.585938 427.816406 398.738281 L 477.238281 448.15625 C 480.335938 451.257812 486.476562 452.25 490.628906 449.152344 L 527.652344 425.464844 C 543.089844 434.765625 559.582031 440.90625 577.070312 446.050781 L 586.371094 488.277344 C 587.363281 493.425781 591.515625 496.523438 596.664062 496.523438 L 666.609375 496.523438 C 671.816406 496.523438 675.910156 493.425781 676.90625 488.277344 L 686.203125 446.050781 C 703.691406 440.90625 720.183594 434.765625 735.566406 425.464844 L 771.648438 448.15625 C 775.742188 451.257812 781.945312 450.203125 785.042969 447.105469 C 787.03125 445.058594 833.410156 398.738281 834.40625 397.683594 C 835.457031 396.691406 836.511719 395.636719 836.511719 394.585938 L 809.722656 366.804688 L 720.183594 366.804688 " fill-opacity="1" fill-rule="nonzero"/></g><path fill="#ffffff" d="M 960.03125 199.011719 C 939.445312 199.011719 921.898438 213.457031 916.75 232.992188 L 759.25 232.992188 C 754.164062 232.992188 748.957031 238.136719 748.957031 243.285156 C 748.957031 249.484375 754.164062 253.578125 759.25 253.578125 L 916.75 253.578125 C 920.902344 273.171875 938.390625 287.558594 960.03125 287.558594 C 984.710938 287.558594 1004.246094 267.964844 1004.246094 243.285156 C 1004.246094 218.605469 984.710938 199.011719 960.03125 199.011719 " fill-opacity="1" fill-rule="nonzero"/><path fill="#ffffff" d="M 992.898438 358.558594 C 972.3125 358.558594 954.824219 373.003906 949.738281 392.539062 L 894.117188 392.539062 L 829.257812 327.679688 C 827.210938 326.683594 825.164062 325.632812 822.0625 325.632812 L 719.128906 325.632812 C 712.929688 325.632812 708.835938 330.777344 708.835938 335.925781 C 708.835938 341.070312 712.929688 346.21875 719.128906 346.21875 L 817.910156 346.21875 L 882.773438 411.078125 C 884.878906 413.125 887.976562 414.179688 889.964844 414.179688 L 949.679688 414.179688 C 954.824219 433.710938 972.3125 448.15625 992.898438 448.15625 C 1017.636719 448.15625 1037.171875 428.566406 1037.171875 403.882812 C 1037.171875 378.152344 1017.636719 358.558594 992.898438 358.558594 " fill-opacity="1" fill-rule="nonzero"/><path fill="#ffffff" d="M 720.183594 141.402344 C 715.035156 141.402344 709.890625 146.550781 709.890625 151.695312 C 709.890625 156.84375 715.035156 161.992188 720.183594 161.992188 L 822.0625 161.992188 C 825.164062 161.992188 827.210938 160.9375 829.257812 158.890625 L 894.117188 94.03125 L 950.730469 94.03125 C 955.878906 113.566406 973.363281 128.011719 993.953125 128.011719 C 1018.691406 128.011719 1038.226562 108.417969 1038.226562 83.738281 C 1038.226562 59.058594 1018.691406 39.464844 993.953125 39.464844 C 973.363281 39.464844 954.824219 53.910156 950.730469 73.445312 L 889.964844 73.445312 C 886.925781 73.445312 884.878906 74.496094 882.773438 76.542969 L 817.910156 141.402344 L 720.183594 141.402344 " fill-opacity="1" fill-rule="nonzero"/><path fill="#ffffff" d="M 111.964844 134.402344 C 208.863281 134.402344 281.664062 156.660156 328.34375 200.546875 C 374.507812 243.957031 397.914062 311.570312 397.914062 401.515625 C 397.914062 493.402344 373.230469 561.8125 322.453125 610.652344 C 272.054688 659.121094 199.425781 683.699219 106.582031 683.699219 L -60.429688 683.699219 C -69.074219 668.894531 -85.117188 658.941406 -103.496094 658.941406 C -131.027344 658.941406 -153.347656 681.257812 -153.347656 708.789062 C -153.347656 736.320312 -131.027344 758.636719 -103.496094 758.636719 C -85.117188 758.636719 -69.074219 748.683594 -60.429688 733.878906 L 106.578125 733.878906 C 212.835938 733.878906 297.171875 704.589844 357.238281 646.820312 C 417.527344 588.832031 448.097656 506.300781 448.097656 401.515625 C 448.097656 190.972656 335.003906 84.222656 111.960938 84.222656 L -29.289062 84.222656 L -29.289062 533.839844 L 244.019531 533.839844 C 252.664062 548.644531 268.707031 558.597656 287.089844 558.597656 C 314.617188 558.597656 336.9375 536.28125 336.9375 508.75 C 336.9375 481.21875 314.617188 458.898438 287.089844 458.898438 C 268.707031 458.898438 252.664062 468.855469 244.019531 483.65625 L 20.890625 483.65625 L 20.890625 134.402344 Z M -103.496094 732.457031 C -116.566406 732.457031 -127.164062 721.859375 -127.164062 708.789062 C -127.164062 695.71875 -116.566406 685.121094 -103.496094 685.121094 C -90.425781 685.121094 -79.832031 695.71875 -79.832031 708.789062 C -79.832031 721.859375 -90.425781 732.457031 -103.496094 732.457031 Z M 287.089844 485.082031 C 300.160156 485.082031 310.753906 495.679688 310.753906 508.75 C 310.753906 521.820312 300.160156 532.417969 287.089844 532.417969 C 274.015625 532.417969 263.421875 521.820312 263.421875 508.75 C 263.421875 495.679688 274.015625 485.082031 287.089844 485.082031 Z M 287.089844 485.082031 " fill-opacity="1" fill-rule="nonzero"/><g clip-path="url(#681e0ff497)"><path fill="#ffffff" d="M 440.175781 95.433594 C 366.859375 27.820312 257.152344 -6.464844 114.117188 -6.464844 L -128.589844 -6.464844 L -128.589844 634.183594 L 119.503906 634.183594 C 128.148438 648.988281 144.191406 658.941406 162.570312 658.941406 C 190.101562 658.941406 212.421875 636.621094 212.421875 609.089844 C 212.421875 581.5625 190.101562 559.242188 162.570312 559.242188 C 144.191406 559.242188 128.148438 569.195312 119.503906 584 L -78.40625 584 L -78.40625 43.71875 L 114.117188 43.71875 C 374.796875 43.71875 501.519531 160.050781 501.519531 399.359375 C 501.519531 512.105469 465.535156 603.710938 394.574219 671.644531 C 323.351562 739.816406 226.09375 774.382812 105.503906 774.382812 L -176.109375 774.382812 L -176.109375 86.453125 C -161.304688 77.808594 -151.351562 61.765625 -151.351562 43.386719 C -151.351562 15.855469 -173.667969 -6.464844 -201.199219 -6.464844 C -228.730469 -6.464844 -251.050781 15.855469 -251.050781 43.386719 C -251.050781 61.765625 -241.09375 77.808594 -226.289062 86.453125 L -226.289062 824.566406 L 105.503906 824.566406 C 239.464844 824.566406 348.398438 785.3125 429.277344 707.894531 C 510.511719 630.128906 551.703125 526.324219 551.703125 399.359375 C 551.699219 265.929688 514.179688 163.675781 440.175781 95.433594 Z M 162.570312 585.425781 C 175.640625 585.425781 186.238281 596.019531 186.238281 609.089844 C 186.238281 622.164062 175.640625 632.757812 162.570312 632.757812 C 149.5 632.757812 138.90625 622.164062 138.90625 609.089844 C 138.90625 596.019531 149.5 585.425781 162.570312 585.425781 Z M -201.199219 19.71875 C -188.128906 19.71875 -177.53125 30.316406 -177.53125 43.386719 C -177.53125 56.457031 -188.128906 67.054688 -201.199219 67.054688 C -214.269531 67.054688 -224.867188 56.457031 -224.867188 43.386719 C -224.867188 30.316406 -214.269531 19.71875 -201.199219 19.71875 Z M -201.199219 19.71875 " fill-opacity="1" fill-rule="nonzero"/></g><g clip-path="url(#071292ad7b)"><path fill="#ffffff" d="M 631.113281 597 L 631.117188 596.996094 L 731.398438 498.023438 L 791.707031 438.503906 C 786.175781 433.753906 780.445312 429.257812 774.511719 425.015625 C 768.582031 420.777344 762.472656 416.808594 756.191406 413.109375 C 749.90625 409.414062 743.46875 406 736.882812 402.875 C 730.296875 399.75 723.582031 396.925781 716.742188 394.398438 C 709.90625 391.867188 702.96875 389.648438 695.929688 387.738281 C 688.894531 385.828125 681.789062 384.230469 674.609375 382.953125 C 667.429688 381.675781 660.210938 380.714844 652.949219 380.078125 C 645.683594 379.441406 638.40625 379.128906 631.117188 379.140625 L 631.113281 379.140625 C 623.824219 379.128906 616.546875 379.441406 609.28125 380.078125 C 602.019531 380.714844 594.796875 381.671875 587.621094 382.953125 C 580.441406 384.230469 573.335938 385.828125 566.300781 387.738281 C 559.261719 389.648438 552.324219 391.867188 545.488281 394.394531 C 538.648438 396.925781 531.933594 399.75 525.347656 402.875 C 518.761719 406 512.324219 409.414062 506.039062 413.109375 C 499.757812 416.808594 493.648438 420.777344 487.71875 425.019531 C 481.789062 429.261719 476.054688 433.757812 470.527344 438.507812 L 530.828125 498.023438 Z M 631.113281 597 " fill-opacity="1" fill-rule="nonzero"/></g><g clip-path="url(#e33c87dd92)"><path fill="#ffffff" d="M 822.332031 469.84375 L 762.125 529.265625 L 646.476562 643.402344 L 631.117188 658.5625 L 615.753906 643.402344 L 500.105469 529.265625 L 439.898438 469.839844 C 435.425781 475.296875 431.199219 480.933594 427.210938 486.753906 C 423.226562 492.574219 419.496094 498.550781 416.027344 504.691406 C 412.554688 510.832031 409.355469 517.109375 406.421875 523.527344 C 403.492188 529.941406 400.84375 536.46875 398.472656 543.113281 C 396.105469 549.757812 394.023438 556.492188 392.234375 563.3125 C 390.445312 570.136719 388.953125 577.023438 387.753906 583.972656 C 386.558594 590.925781 385.664062 597.914062 385.066406 604.941406 C 384.472656 611.96875 384.179688 619.011719 384.1875 626.0625 C 384.1875 694.242188 411.832031 755.972656 456.519531 800.660156 C 468.804688 812.945312 482.234375 823.824219 496.808594 833.285156 L 596.15625 733.941406 L 480.640625 618.425781 L 480.640625 713.253906 L 431.191406 713.253906 L 431.191406 499.054688 L 473.394531 541.257812 L 631.117188 698.976562 L 788.832031 541.257812 L 831.039062 499.054688 L 831.039062 713.253906 L 781.589844 713.253906 L 781.589844 618.425781 L 666.078125 733.941406 L 765.425781 833.289062 C 779.996094 823.820312 793.425781 812.945312 805.710938 800.65625 C 850.394531 755.972656 878.039062 694.238281 878.039062 626.0625 C 878.050781 619.007812 877.757812 611.96875 877.164062 604.941406 C 876.566406 597.914062 875.671875 590.925781 874.472656 583.972656 C 873.277344 577.023438 871.785156 570.136719 869.992188 563.3125 C 868.203125 556.492188 866.125 549.757812 863.757812 543.113281 C 861.386719 536.472656 858.738281 529.941406 855.804688 523.527344 C 852.875 517.109375 849.675781 510.832031 846.203125 504.691406 C 842.730469 498.554688 839.003906 492.574219 835.019531 486.753906 C 831.03125 480.9375 826.804688 475.296875 822.332031 469.84375 Z M 822.332031 469.84375 " fill-opacity="1" fill-rule="nonzero"/></g><path fill="#ffffff" d="M 543.160156 856.859375 C 550.167969 859.519531 557.285156 861.855469 564.507812 863.871094 C 571.730469 865.886719 579.027344 867.570312 586.402344 868.921875 C 593.777344 870.277344 601.199219 871.292969 608.667969 871.972656 C 616.136719 872.648438 623.617188 872.988281 631.117188 872.988281 C 638.613281 872.988281 646.097656 872.648438 653.5625 871.96875 C 661.03125 871.292969 668.453125 870.273438 675.828125 868.921875 C 683.203125 867.570312 690.5 865.886719 697.722656 863.871094 C 704.945312 861.855469 712.0625 859.515625 719.070312 856.855469 L 631.117188 768.902344 Z M 543.160156 856.859375 " fill-opacity="1" fill-rule="nonzero"/><g clip-path="url(#452d37c14a)"><g clip-path="url(#76d83b027a)"><path fill="#ffffff" d="M 409.980469 289.269531 L 492.6875 289.269531 L 492.6875 371.976562 L 409.980469 371.976562 Z M 409.980469 289.269531 " fill-opacity="1" fill-rule="nonzero"/></g></g><g clip-path="url(#7fe3aaaa15)"><g clip-path="url(#17cdc1aebc)"><path fill="#ffffff" d="M 761.4375 759.582031 L 844.144531 759.582031 L 844.144531 842.289062 L 761.4375 842.289062 Z M 761.4375 759.582031 " fill-opacity="1" fill-rule="nonzero"/></g></g><g clip-path="url(#f54181f6cb)"><path fill="#ffffff" d="M 433.941406 765.570312 L 493.535156 765.570312 L 493.535156 836.335938 L 433.941406 836.335938 Z M 433.941406 765.570312 " fill-opacity="1" fill-rule="nonzero"/></g><g clip-path="url(#a813992fc3)"><path fill="#ffffff" d="M 660.226562 268.011719 L 660.226562 378.980469 C 660.164062 379.015625 660.117188 379.050781 660.054688 379.085938 C 653.90625 382.839844 647.5625 386.273438 641.070312 389.390625 L 641.070312 283.621094 L 608.144531 261.679688 L 608.144531 402.210938 C 602.335938 403.96875 596.46875 405.464844 590.546875 406.695312 L 590.546875 325.328125 L 557.636719 303.382812 L 557.636719 411.089844 L 556.695312 411.148438 C 555.601562 411.210938 554.503906 411.226562 553.410156 411.246094 L 546.859375 411.382812 C 542.484375 411.394531 538.113281 411.257812 533.765625 411.078125 C 525.074219 410.566406 516.4375 409.554688 507.925781 407.96875 C 503.679688 407.171875 499.464844 406.257812 495.289062 405.195312 C 491.125 404.089844 486.984375 402.980469 482.917969 401.578125 C 476.792969 399.582031 470.789062 397.242188 464.980469 394.539062 C 463.75 393.96875 464.25 392.117188 465.589844 392.214844 C 471.921875 392.667969 478.179688 393.054688 484.402344 393.226562 C 492.683594 393.457031 500.890625 393.445312 509.023438 393.054688 C 517.695312 392.667969 526.277344 391.945312 534.777344 390.851562 C 535.714844 390.730469 536.152344 389.632812 535.570312 388.890625 C 524 374.058594 516.121094 356.183594 513.40625 336.582031 C 504.082031 269.410156 558.230469 209.195312 626.019531 211.386719 C 669.40625 212.777344 706.765625 239.492188 723.277344 277.542969 C 723.652344 278.421875 724.824219 278.566406 725.382812 277.800781 C 731.425781 269.449219 737.085938 260.753906 742.335938 251.679688 L 745.328125 246.347656 L 746.828125 243.667969 L 748.242188 240.941406 L 748.589844 240.277344 L 729.3125 235.023438 L 765.925781 198.71875 L 779.058594 248.578125 L 759.75 243.316406 L 759.359375 245.070312 L 758.628906 248.222656 L 757.761719 251.339844 L 756.007812 257.574219 C 750.945312 274.121094 743.566406 290.0625 734.515625 305.089844 C 725.382812 320.066406 714.289062 333.925781 701.796875 346.429688 C 699 349.21875 696.109375 351.921875 693.152344 354.539062 L 693.152344 289.953125 L 660.226562 268.011719 " fill-opacity="1" fill-rule="nonzero"/></g><g clip-path="url(#301beb0dd2)"><g clip-path="url(#3ccd930e08)"><path fill="#e20016" d="M 725.097656 181.199219 L 779.605469 181.199219 L 779.605469 254.019531 L 725.097656 254.019531 Z M 725.097656 181.199219 " fill-opacity="1" fill-rule="nonzero"/></g></g><g clip-path="url(#ef731ab959)"><g clip-path="url(#8b00bc83fd)"><path fill="#e20016" d="M 718.664062 208.074219 L 751.59375 208.074219 L 751.59375 246.667969 L 718.664062 246.667969 Z M 718.664062 208.074219 " fill-opacity="1" fill-rule="nonzero"/></g></g><g clip-path="url(#6772c047ef)"><g clip-path="url(#f111dee7b4)"><path fill="#e20016" d="M 789.070312 251.796875 L 813.863281 251.796875 L 813.863281 276.589844 L 789.070312 276.589844 Z M 789.070312 251.796875 " fill-opacity="1" fill-rule="nonzero"/></g></g><g clip-path="url(#4df362092a)"><g clip-path="url(#d03e9af0ab)"><path fill="#e20016" d="M 739.292969 185.933594 L 818.78125 185.933594 L 818.78125 311.996094 L 739.292969 311.996094 Z M 739.292969 185.933594 " fill-opacity="1" fill-rule="nonzero"/></g></g><g clip-path="url(#865da17ed8)"><g clip-path="url(#a5abb33d6e)"><path fill="#e20016" d="M 780.929688 205.804688 L 823.515625 205.804688 L 823.515625 279.496094 L 780.929688 279.496094 Z M 780.929688 205.804688 " fill-opacity="1" fill-rule="nonzero"/></g></g><g clip-path="url(#b936d2d700)"><path fill="#e20016" d="M 794.5625 227.378906 L 820.726562 227.378906 L 820.726562 259.371094 L 794.5625 259.371094 Z M 794.5625 227.378906 " fill-opacity="1" fill-rule="nonzero"/></g></svg>